<svg width="24" height="24" viewBox="0 0 24 24" fill="none" xmlns="http://www.w3.org/2000/svg">
<path d="M11.9915 19.9667C11.7831 19.9667 11.583 19.9584 11.3828 19.9417L10.9243 20.8172C10.8242 21.0173 10.6241 21.1173 10.3906 21.0756C10.1655 21.0339 10.0238 20.8672 9.98209 20.6337L9.83201 19.6749C9.44847 19.5665 9.07327 19.4247 8.69807 19.2663L7.98935 19.9C7.81425 20.0501 7.58913 20.1001 7.36401 19.975C7.18058 19.8666 7.10554 19.6499 7.14723 19.4164L7.33066 18.4742C7.02216 18.2408 6.69698 17.9823 6.4135 17.7071L5.53802 18.074C5.30456 18.1657 5.08778 18.1074 4.92102 17.9156C4.77928 17.7488 4.77094 17.5154 4.88767 17.3153L5.39628 16.4898C5.1795 16.1646 4.98773 15.8145 4.79596 15.4476L3.82877 15.4809C3.60364 15.4976 3.3952 15.3809 3.3285 15.1474C3.25346 14.9306 3.32016 14.7139 3.50359 14.5721L4.254 13.9718C4.15394 13.5883 4.08724 13.188 4.06223 12.7711L3.13673 12.4793C2.90327 12.4043 2.7782 12.2375 2.7782 11.9957C2.7782 11.7539 2.90327 11.5788 3.13673 11.5121L4.06223 11.2203C4.08724 10.8034 4.15394 10.4115 4.254 10.0197L3.50359 9.411C3.32016 9.27759 3.25346 9.06914 3.3285 8.85236C3.3952 8.6189 3.60364 8.50217 3.82877 8.51885L4.79596 8.54386C4.98773 8.177 5.1795 7.83514 5.39628 7.49329L4.87933 6.66785C4.7626 6.48441 4.78762 6.25095 4.92102 6.0842C5.08778 5.88409 5.30456 5.83406 5.52969 5.92578L6.4135 6.27597C6.69698 6.0175 7.02216 5.75068 7.33066 5.51723L7.14723 4.58339C7.0972 4.33325 7.18058 4.12481 7.36401 4.02475C7.58913 3.89968 7.81425 3.93304 7.98935 4.09979L8.69807 4.71679C9.07327 4.56671 9.44847 4.43331 9.83201 4.31658L9.98209 3.36606C10.0238 3.1326 10.1655 2.96585 10.3906 2.92416C10.6241 2.88247 10.8242 2.98252 10.9243 3.17429L11.3828 4.04976C11.5913 4.03309 11.7831 4.02475 11.9915 4.02475C12.1916 4.02475 12.3917 4.03309 12.5918 4.04976L13.0588 3.17429C13.1505 2.98252 13.3589 2.88247 13.5924 2.92416C13.8175 2.96585 13.9759 3.1326 14.0009 3.36606L14.151 4.32491C14.5346 4.43331 14.9098 4.56671 15.2766 4.71679L15.9937 4.09145C16.1604 3.93304 16.3939 3.89968 16.6107 4.02475C16.8024 4.12481 16.8858 4.33325 16.8358 4.58339L16.644 5.51723C16.9609 5.75068 17.2777 6.0175 17.5612 6.27597L18.4533 5.92578C18.6785 5.83406 18.8952 5.88409 19.062 6.0842C19.1954 6.25095 19.2121 6.48441 19.0954 6.66785L18.5867 7.49329C18.8035 7.83514 19.0036 8.177 19.1871 8.54386L20.1543 8.51885C20.371 8.50217 20.5878 8.6189 20.6545 8.85236C20.7296 9.06914 20.6462 9.27759 20.4794 9.411L19.729 10.0197C19.8291 10.4115 19.8958 10.8034 19.9291 11.2203L20.838 11.5121C21.0714 11.5872 21.2215 11.7539 21.2215 11.9957C21.2215 12.2292 21.0714 12.4043 20.838 12.4793L19.9291 12.7711C19.8958 13.188 19.8291 13.5883 19.729 13.9718L20.4794 14.5721C20.6545 14.7139 20.7296 14.9306 20.6545 15.1474C20.5878 15.3809 20.371 15.4976 20.1543 15.4809L19.1871 15.4476C19.0036 15.8145 18.8035 16.1646 18.5867 16.4898L19.0954 17.3153C19.2204 17.5154 19.1954 17.7488 19.062 17.9156C18.8952 18.1074 18.6785 18.1657 18.445 18.074L17.5612 17.7071C17.2777 17.9823 16.9609 18.2408 16.644 18.4742L16.8358 19.4164C16.8942 19.6499 16.8024 19.8666 16.6107 19.975C16.3939 20.1001 16.1604 20.0501 15.9937 19.9L15.2766 19.2663C14.9098 19.4247 14.5346 19.5665 14.151 19.6665L14.0009 20.6337C13.9759 20.8672 13.8175 21.0339 13.5924 21.0756C13.3589 21.1173 13.1588 21.0173 13.0588 20.8172L12.5918 19.9417C12.3917 19.9584 12.1916 19.9667 11.9915 19.9667ZM11.9748 9.82789C12.9754 9.82789 13.8092 10.4949 14.076 11.4121H18.52C18.2366 8.0019 15.4934 5.36714 11.9915 5.36714C10.9576 5.36714 9.99877 5.59227 9.13997 6.00082L11.4162 9.90293C11.5913 9.8529 11.7831 9.82789 11.9748 9.82789ZM5.45465 12.0041C5.45465 14.2053 6.47186 16.148 8.08107 17.3486L10.4157 13.5299C10.0321 13.138 9.79866 12.6044 9.79866 12.0124C9.79866 11.4204 10.0321 10.8868 10.4073 10.4949L8.13109 6.60948C6.48854 7.81013 5.45465 9.76952 5.45465 12.0041ZM11.9748 12.9379C12.5085 12.9379 12.917 12.546 12.917 12.0124C12.917 11.4788 12.5085 11.0702 11.9748 11.0702C11.4496 11.0702 11.041 11.4788 11.041 12.0124C11.041 12.546 11.4496 12.9379 11.9748 12.9379ZM11.9915 18.6243C15.5017 18.6243 18.2532 15.9812 18.5284 12.5627H14.0843C13.8425 13.4965 12.9921 14.1886 11.9748 14.1886C11.7831 14.1886 11.5996 14.1636 11.4162 14.1135L9.08161 17.9573C9.94874 18.3825 10.9409 18.6243 11.9915 18.6243Z" fill="#C4FF1E"/>
</svg>
