<svg width="21" height="21" viewBox="0 0 21 21" fill="none" xmlns="http://www.w3.org/2000/svg">
<path fill-rule="evenodd" clip-rule="evenodd" d="M15 4.5C15 3.67157 15.6716 3 16.5 3C17.3284 3 18 3.67157 18 4.5V15.75C18 16.5784 17.3284 17.25 16.5 17.25C15.6716 17.25 15 16.5784 15 15.75V4.5ZM14.25 15.4156V4.875C14.25 4.875 12.375 6.75 8.25 6.75H5.62406C3.7601 6.75 2.25 8.26104 2.25 10.125C2.25 11.989 3.76009 13.5 5.62405 13.5L8.25 13.5C12.375 13.5 14.25 15.4156 14.25 15.4156ZM6.72399 17.3112L5.47137 14.625H8.78151L9.44291 16.0434C9.79302 16.7942 9.46819 17.6867 8.71738 18.0368C7.96657 18.3869 7.07409 18.062 6.72399 17.3112Z" fill="#C4FF1E"/>
</svg>
