<svg width="20" height="20" viewBox="0 0 20 20" fill="none" xmlns="http://www.w3.org/2000/svg">
<path d="M2.15158 9.80903C6.37064 7.97128 9.1833 6.7596 10.5897 6.17422C14.6097 4.50265 15.444 4.21233 15.9889 4.20261C16.1088 4.20058 16.3756 4.23019 16.5497 4.37106C16.6944 4.48976 16.7351 4.65029 16.7554 4.76289C16.7735 4.87549 16.7984 5.13212 16.7781 5.33244C16.561 7.62059 15.6182 13.1732 15.1388 15.7361C14.9376 16.8205 14.5374 17.1841 14.1508 17.2196C13.3097 17.2969 12.672 16.6643 11.8581 16.1308C10.5851 15.2959 9.86615 14.7763 8.62937 13.9616C7.20041 13.0201 8.1274 12.5026 8.94137 11.657C9.1539 11.4356 12.8574 8.06782 12.9275 7.76236C12.9366 7.72415 12.9456 7.5817 12.8597 7.50664C12.7761 7.43135 12.6516 7.45712 12.5612 7.47747C12.4323 7.50641 10.3997 8.85127 6.45646 11.5118C5.8799 11.9084 5.35762 12.1017 4.88732 12.0915C4.37181 12.0805 3.37703 11.7994 2.63768 11.5593C1.73327 11.2647 1.01197 11.1089 1.07528 10.6085C1.10694 10.3481 1.4665 10.0815 2.15158 9.80903Z" fill="#C4FF1E"/>
</svg>
